<?xml version="1.0" encoding="UTF-8" standalone="no"?>
<!-- Created with Inkscape (http://www.inkscape.org/) -->

<svg
   version="1.1"
   id="svg1"
   width="800"
   height="539.33331"
   viewBox="0 0 800 539.33331"
   xmlns="http://www.w3.org/2000/svg"
   xmlns:svg="http://www.w3.org/2000/svg">
  <defs
     id="defs1" />
  <path
     style="display:inline;fill:#808000;fill-opacity:0;stroke:#000000"
     d="m 239.79381,20.502816 164.02253,0.891427 c 1.0886,-9.126866 5.85713,-14.573812 12.96563,-17.6807768 h 71.21118 c 8.57496,1.8373108 12.6466,8.1779398 13.76167,17.4751348 l 236.76028,0.08772 c 1.22626,0.145568 1.68883,0.556027 1.77532,2.31511 l 0.32801,148.377359 c 0.027,1.59007 -1.22949,1.6786 -3.47718,1.86888 l -14.39781,-0.034 -218.59607,-1.39976 -0.69988,193.63365 66.48867,-0.23329 0.23329,153.50716 H 395.19928 l -2.09533,-0.0969 -0.13678,9.301 -7.93321,9.84811 -74.2712,-0.27356 -10.12168,-11.76302 -0.13677,-6.83897 -241.142058,0.68389 c -0.329076,-0.19623 -0.681068,-0.35426 -0.683897,-1.09423 l 0.13678,-150.04698 c 0.251379,-0.89395 0.494416,-1.79303 1.778132,-2.05169 H 239.77426 Z"
     id="todo">
    <title
       id="title1">InnovactionGym</title>
  </path>
  <path
     style="fill:#808000;fill-opacity:0;stroke:#000000"
     d="m 239.72715,171.94185 31.30266,0.0557 c 2.28247,-0.41939 2.61589,-1.14653 3.17483,-1.83806 L 372.05026,24.126944 c 0.75577,-1.808952 0.66568,-2.86307 0.15978,-2.910366 L 239.83141,20.53187 Z"
     id="sparring" />
  <path
     style="fill:#808000;fill-opacity:0;stroke:#000000"
     d="m 512.96565,21.272601 21.13065,28.863963 c 1.41599,1.626117 0.17079,1.85828 -0.18919,2.554127 l -69.70594,48.810039 c -1.85575,1.22412 -1.96469,2.04503 -2.07988,2.9482 l -0.8649,26.75751 c 0.13412,6.73323 2.2617,12.04255 4.44607,17.31131 2.23891,4.72954 4.63201,7.8182 8.14652,11.24593 3.56329,3.94989 7.37228,5.95059 11.15133,8.39019 5.23438,2.27602 10.46877,2.94637 15.70315,3.72941 l 3.31091,0.37839 1.41996,0.22878 233.11689,1.28395 c 1.06413,-0.13761 1.63519,-0.78587 2.18,-1.63193 L 740.30387,22.660342 c -0.12853,-0.587757 -0.31059,-1.146315 -1.14886,-1.346943 z"
     id="makerspace" />
  <path
     style="fill:#808000;fill-opacity:0;stroke:#000000"
     d="m 395.63884,400.88439 c -1.41198,0.72149 -1.87796,1.218 -2.17338,2.73704 l 0.86238,115.61256 174.30199,0.0818 c 0.75306,-0.0644 1.5526,-0.0358 1.46581,-1.77991 l -0.3141,-150.6644 -1.15171,-1.36111 -63.97217,0.52351 h -1.25209 l -0.22582,31.99293 c 0.19664,1.98052 -1.2688,2.35553 -2.4695,2.70583 z"
     id="esferas" />
  <path
     style="display:inline;fill:#808000;fill-opacity:0;stroke:#000000"
     d="m 251.89549,519.43155 0.1176,-56.98714 c 1.72671,-2.19907 4.73333,-2.67335 7.64388,-2.81158 l 16.98263,-0.24867 c 37.62792,9.01112 26.09721,54.81373 23.94656,60.09215 z"
     id="comedor" />
  <path
     style="display:inline;fill:#808000;fill-opacity:0;stroke:#000000"
     d="m 60.471469,366.91729 c -1.653363,0.75985 -1.407419,1.46214 -1.901619,2.18686 v 149.84754 c -0.04564,0.75537 0.40279,0.92195 0.774229,1.24287 l 192.341691,-0.57074 0.29816,-56.98038 c -0.25063,-1.08009 2.25478,-2.5098 4.9628,-3.06703 l 19.69497,-0.21549 c 11.49843,2.17368 21.11179,9.63675 25.1151,22.71622 l -0.46931,-111.26819 c -0.22509,-2.08647 -1.93457,-2.79457 -3.61121,-3.53317 l -58.42241,-0.20621 z"
     id="AthenasCom" />
  <path
     style="display:inline;fill:#808000;fill-opacity:0;stroke:#000000"
     d="m 321.8983,154.17911 c -1.01729,0.25254 -1.99581,0.59038 -2.27315,2.47082 l 0.79066,210.41494 c 0.0853,1.09133 0.81305,1.59375 1.77899,1.87783 l 125.61644,-0.19767 2.27315,-1.58132 -0.0988,-211.79861 c -0.13806,-0.45951 0.21429,-1.05276 -1.48249,-1.08716 z"
     id="fractal" />
  <path
     style="display:inline;fill:#808000;fill-opacity:0;stroke:#000000"
     d="m 60.45384,366.79439 -1.963997,2.35106 0.169404,149.79452 0.725263,1.36349 240.83099,-0.86659 c 3.53506,-9.10738 5.95337,-19.73758 1.54963,-39.6706 l -0.4604,-108.79871 c -0.16492,-2.28841 -2.0257,-3.03995 -3.8496,-3.82491 z"
     id="AthenasFull" />
</svg>
